
<svg xmlns="http://www.w3.org/2000/svg" version="1.1" xmlns:xlink="http://www.w3.org/1999/xlink" preserveAspectRatio="none" x="0px" y="0px" width="2500px" height="1000px" viewBox="0 0 2500 1000">
<defs>
<g id="Layer2_0_FILL">
<path fill="#0066CC" stroke="none" d="
M -603.45 86.95
L -603.45 86.9
Q -603.45 66.2 -618.1 51.55 -632.75 36.95 -653.45 36.95 -674.15 36.95 -688.8 51.55 -703.45 66.2 -703.45 86.95 -703.45 107.65 -688.8 122.3 -674.15 136.95 -653.45 136.95 -632.75 136.95 -618.1 122.3 -603.45 107.65 -603.45 86.95 Z"/>
</g>

<g id="Symbol_1_0_Layer1_0_FILL">
<path fill="#F9FCFF" stroke="none" d="
M 551.8 160.45
Q 548.4943359375 160 545 160 526.4 160 513.15 173.15 500 186.35 500 205 500 223.6 513.15 236.85 526.4 250 545 250 548.4943359375 250 551.8 249.5 566.0892578125 247.5294921875 576.85 236.85 587.436328125 226.183203125 589.5 212.05
L 589.5 197.9
Q 587.436328125 183.7765625 576.85 173.15 566.0892578125 162.4705078125 551.8 160.45
M 1521.7 160
Q 1503.1 160 1489.85 173.15 1476.7 186.35 1476.7 205 1476.7 223.6 1489.85 236.85 1503.1 250 1521.7 250 1540.3 250 1553.55 236.85 1566.7 223.6 1566.7 205
L 1566.7 204.95
Q 1566.7 186.35 1553.55 173.15 1540.3 160 1521.7 160 Z"/>
</g>

<path id="Layer2_0_1_STROKES" stroke="#0066CC" stroke-width="100" stroke-linejoin="round" stroke-linecap="round" fill="none" d="
M -133.1 186.95
Q -133.1 228.4 -162.4 257.65 -191.65 286.95 -233.1 286.95 -274.5 286.95 -303.8 257.65 -333.1 228.4 -333.1 186.95 -333.1 145.55 -303.8 116.25 -274.5 86.95 -233.1 86.95 -191.65 86.95 -162.4 116.25 -133.1 145.55 -133.1 186.95 Z
M -494.1 86.95
L -494.1 286.95"/>

<path id="Symbol_1_0_Layer1_0_1_STROKES" stroke="#F9FCFF" stroke-width="100" stroke-linejoin="round" stroke-linecap="round" fill="none" d="
M 861.7 4.95
Q 826.7 8.05 800.95 33.8 773.85 60.8 771.85 98.2
L 771.85 -95
Q 771.85 -95.3 771.85 -95.5 771.85 -136.9 801.15 -166.2 821.5 -186.55 847.75 -192.75 859.25 -195.5 871.85 -195.5 878.6 -195.5 885 -194.7 892.55 -193.8 899.65 -191.8
M 1097.5 200
Q 1057.15 199.4 1028.4 170.7 1001.35 143.65 999.3 106.25 999.1 103.15 999.1 100 999.1 58.6 1028.4 29.3 1057.7 0 1098.2 0 1138.65 0 1163.4 29.1 1188.1 58.2 1174.35 98.9
M 771.85 102.4
Q 771.25 142.65 742.6 171.35 725.5 188.4 704.25 195.55 694.5 198.8 683.85 200
M 438.4 200
Q 398.05 199.4 369.25 170.7 342.25 143.65 340.2 106.25 340 103.15 340 100 340 58.6 369.25 29.3 398.6 0 440 0 481.45 0 510.7 29.3 522.35 40.95 529.4 54.55 539.75 74.65 540 98.9
M 24.95 368.7
Q 54.15 397.95 95.55 398 137 397.95 166.3 368.7 195 340 195.55 299.75
L 195.55 102.35
Q 194.65 142.05 166.25 170.4 137 199.75 95.55 199.75 54.15 199.75 24.85 170.4 -4.45 141.2 -4.45 99.75 -4.45 58.35 24.85 29.05 51.55 2.35 88.3 0
M 1415.1 200
Q 1374.75 199.4 1346 170.7 1318.95 143.65 1316.9 106.25 1316.7 103.15 1316.7 100 1316.7 58.6 1346 29.3 1375.3 0 1416.7 0 1458.15 0 1487.4 29.3 1516.3 58.2 1516.7 98.9"/>

<path id="Symbol_1_0_Layer1_0_2_STROKES" stroke="#F9FCFF" stroke-width="50" stroke-linejoin="round" stroke-linecap="round" fill="none" d="
M 1170.35 123.2
L 1100.1 100.1"/>

<path id="Symbol_1_0_Layer0_0_1_STROKES" stroke="#F9FCFF" stroke-width="100" stroke-linejoin="round" stroke-linecap="round" fill="none" d="
M 195.55 200
L 195.525 102.575
Q 194.634375 142.3640625 166.25 170.7 137 200 95.55 200 54.15 200 24.85 170.7 -4.45 141.45 -4.45 100 -4.45 58.6 24.85 29.3 54.15 0 95.55 0 137 0 166.25 29.3 194.634375 57.684375 195.525 97.425
L 195.55 2.6
M 195.525 102.575
L 195.525 97.425"/>
</defs>

<g transform="matrix( 1, 0, 0, 1, 0,0) ">
<use xlink:href="#Layer2_0_FILL"/>

<use xlink:href="#Layer2_0_1_STROKES"/>
</g>

<g transform="matrix( 1.0436248779296875, 0, 0, 1.04351806640625, 434.8,436.4) ">
<g transform="matrix( 1, 0, 0, 1, 0,0) ">
<use xlink:href="#Symbol_1_0_Layer1_0_FILL"/>

<use xlink:href="#Symbol_1_0_Layer1_0_1_STROKES"/>

<use xlink:href="#Symbol_1_0_Layer1_0_2_STROKES"/>
</g>

<g transform="matrix( 1, 0, 0, 1, 0,0) ">
<use xlink:href="#Symbol_1_0_Layer0_0_1_STROKES"/>
</g>
</g>
</svg>
