
<svg xmlns="http://www.w3.org/2000/svg" version="1.1" xmlns:xlink="http://www.w3.org/1999/xlink" preserveAspectRatio="none" x="0px" y="0px" width="2500px" height="1000px" viewBox="0 0 2500 1000">
<defs>
<g id="Layer0_0_FILL">
<path fill="#9999FF" fill-opacity="0.6588235294117647" stroke="none" d="
M 1060.15 628.3
Q 1060.15 628.5 1060.15 628.7 1057.05 708.1 1000 764.95 987.2 777.8 973.25 787.85 975.9 790.9 978.85 793.9 1004.65 819.6 1039.15 824.55 1041.25 824.8 1043.25 825
L 1043.4 825
Q 1050.45 825 1055.4 820.15 1060.15 815.3 1060.3 808.75
L 1060.3 625.8
Q 1060.3 625.15 1060.3 624.5
L 1060.15 624.5
Q 1060.15 626.4 1060.15 628.3
M 1479.35 563.95
Q 1480.3 570.3 1480.55 577
L 1480.55 720.9
Q 1481.15 739.85 1487.5 756.4 1495.55 776.95 1512.35 793.8 1538.15 819.5 1572.75 824.4 1574.2 824.55 1575.7 824.8
L 1577.8 824.9
Q 1584.3 824.55 1588.9 820.05 1593.65 815.2 1593.75 808.5
L 1593.75 577.65
Q 1593.75 577 1593.75 576.4
L 1593.75 576.3
Q 1593.1 561.2 1591 547 1580.85 484.3 1533.65 437.2 1473.5 377.15 1388.65 377.15 1321.95 377.15 1270.55 414.35 1283.1 428.7 1289.8 445.7 1296.1 462.2 1296.8 481.15
L 1296.8 575.75
Q 1298.15 540.2 1323.75 514.7 1350.6 487.8 1388.65 487.8 1426.75 487.8 1453.65 514.7 1474.85 535.85 1479.35 563.95
M 1773.75 175
Q 1742.2 175 1719.75 197.45 1698.1 219 1697.4 249.4
L 1697.4 253.35
Q 1698.1 283.6 1719.75 305.2 1742.2 327.55 1773.75 327.55 1805.4 327.55 1827.8 305.2 1848.45 284.75 1850 256.2
L 1850 246.35
Q 1848.45 218 1827.8 197.45 1805.4 175 1773.75 175 Z"/>

<path fill="#9999FF" stroke="none" d="
M 1043.85 377.4
L 1043.25 377.4
Q 1041.25 377.6 1039.15 377.95 1004.65 382.75 978.85 408.55 962.05 425.3 954 445.85 947.65 462.4 947 481.4
L 947 624.5
Q 947 625.35 947 626.2 947 626.3 947 626.4 945.65 662 920.05 687.4 893.2 714.4 855.2 714.4 817.05 714.4 790.1 687.4 769 666.3 764.4 638.25 763.5 631.95 763.3 625.15
L 763.3 481.25
Q 762.65 462.3 756.3 445.8 748.25 425.2 731.4 408.45 705.7 382.7 671.05 377.8 669.6 377.6 668.1 377.4
L 666 377.25
Q 659.55 377.6 654.9 382.15 650.1 386.95 650 393.65
L 650 624.5
Q 650 625.15 650 625.8
L 650 625.85
Q 650.65 641 652.75 655.15 662.9 717.85 710.05 764.95 770.2 825 855.2 825 921.9 825 973.25 787.85 987.2 777.8 1000 764.95 1057.05 708.1 1060.15 628.7 1060.15 628.5 1060.15 628.3 1060.15 626.4 1060.15 624.5
L 1060.3 624.5 1060.3 393.75
Q 1060.15 387.1 1055.4 382.25 1050.5 377.5 1043.85 377.4
M 1296.8 575.95
Q 1296.8 575.9 1296.8 575.75
L 1296.8 481.15
Q 1296.1 462.2 1289.8 445.7 1283.1 428.7 1270.55 414.35 1267.95 411.25 1264.95 408.35 1239.15 382.55 1204.55 377.75 1202.55 377.4 1200.55 377.15 1200.45 377.15 1200.35 377.15 1193.4 377.15 1188.45 382 1183.6 386.9 1183.55 393.45
L 1183.55 576.4
Q 1183.55 577 1183.55 577.65
L 1183.55 808.4
Q 1183.6 815.1 1188.45 819.95 1193.25 824.7 1199.95 824.8
L 1200.35 824.8
Q 1200.45 824.8 1200.55 824.8 1202.55 824.55 1204.55 824.3 1239.15 819.4 1264.95 793.7 1281.75 776.85 1289.8 756.3 1296.1 739.8 1296.8 720.85
L 1296.8 575.95
M 1721.85 382.45
Q 1717.15 387.25 1717.05 394
L 1717.05 721.05
Q 1717.65 740 1724 756.5 1732.05 777.05 1748.85 793.9 1774.65 819.6 1809.2 824.55 1811.25 824.8 1813.25 825 1813.35 825 1813.45 825 1820.5 824.9 1825.45 820.15 1830.15 815.3 1830.25 808.65
L 1830.25 481.55
Q 1829.65 462.6 1823.3 446.1 1815.3 425.5 1798.4 408.75 1772.7 382.95 1738.05 378.15 1736.05 377.8 1734.05 377.6 1733.95 377.6 1733.85 377.6 1732.45 377.6 1730.95 377.95 1725.7 378.7 1721.85 382.45 Z"/>
</g>
</defs>

<g transform="matrix( 1, 0, 0, 1, 0,0) ">
<use xlink:href="#Layer0_0_FILL"/>
</g>
</svg>
